# xmcd
#
# Track frame offsets:
#	150
#	20082
#	40816
#	59274
#	74145
#	97934
#	114201
#	138778
#	155917
#	180436
#	196195
#	216292
#
# Disc length: 3243 seconds
#
# Revision: 0
# Processed by: cddbd v1.5.1PL0 Copyright (c) Steve Scherf et al.
# Submitted via: dBpowerAMP V4.0
#
DISCID=a70ca90c
DTITLE=Matt Powell - Fluke Luck and Jesus
DYEAR=1900
DGENRE=Texas Country
TTITLE0=Sure Thing
TTITLE1=The Lonliest Place
TTITLE2=Ferris Wheel
TTITLE3=The Only Thing That's Changed
TTITLE4=A Whiskey Shot Closer
TTITLE5=Mary
TTITLE6=If She Leaves ME She Leaves Me
TTITLE7=The Next Pin To Fall
TTITLE8=I Can Dream
TTITLE9=The Climb
TTITLE10=Cowboy Bring It On Home
TTITLE11=Becky
EXTD=
EXTT0=
EXTT1=
EXTT2=
EXTT3=
EXTT4=
EXTT5=
EXTT6=
EXTT7=
EXTT8=
EXTT9=
EXTT10=
EXTT11=
PLAYORDER=
